<?xml version="1.0" encoding="UTF-8" standalone="no"?>
<!DOCTYPE svg PUBLIC "-//W3C//DTD SVG 1.1//EN"
 "http://www.w3.org/Graphics/SVG/1.1/DTD/svg11.dtd">
<!-- Generated by graphviz version 2.28.0 (20110509.1545)
 -->
<!-- Title: Graphical Class Hierarchy Pages: 1 -->
<svg width="526pt" height="229pt"
 viewBox="0.00 0.00 526.00 229.00" xmlns="http://www.w3.org/2000/svg" xmlns:xlink="http://www.w3.org/1999/xlink">
<g id="graph1" class="graph" transform="scale(1 1) rotate(0) translate(4 225)">
<title>Graphical Class Hierarchy</title>
<!-- Node1 -->
<g id="node1" class="node"><title>Node1</title>
<polygon fill="none" stroke="black" points="0.105469,-92.2 0.105469,-109.8 37.8945,-109.8 37.8945,-92.2 0.105469,-92.2"/>
<text text-anchor="middle" x="19" y="-97.8" font-family="Helvetica,sans-Serif" font-size="8.00">Model</text>
</g>
<!-- Node2 -->
<g id="node3" class="node"><title>Node2</title>
<polygon fill="none" stroke="black" points="74.1113,-92.2 74.1113,-109.8 107.889,-109.8 107.889,-92.2 74.1113,-92.2"/>
<text text-anchor="middle" x="91" y="-97.8" font-family="Helvetica,sans-Serif" font-size="8.00">QCD</text>
</g>
<!-- Node1&#45;&gt;Node2 -->
<g id="edge2" class="edge"><title>Node1&#45;&gt;Node2</title>
<path fill="none" stroke="midnightblue" d="M48.1729,-101C56.8518,-101 66.1133,-101 73.7095,-101"/>
<polygon fill="midnightblue" stroke="midnightblue" points="48.0268,-97.5001 38.0267,-101 48.0267,-104.5 48.0268,-97.5001"/>
</g>
<!-- Node3 -->
<g id="node5" class="node"><title>Node3</title>
<polygon fill="none" stroke="black" points="143.871,-92.2 143.871,-109.8 214.129,-109.8 214.129,-92.2 143.871,-92.2"/>
<text text-anchor="middle" x="179" y="-97.8" font-family="Helvetica,sans-Serif" font-size="8.00">StandardModel</text>
</g>
<!-- Node2&#45;&gt;Node3 -->
<g id="edge4" class="edge"><title>Node2&#45;&gt;Node3</title>
<path fill="none" stroke="midnightblue" d="M118.392,-101C126.39,-101 135.295,-101 143.731,-101"/>
<polygon fill="midnightblue" stroke="midnightblue" points="118.176,-97.5001 108.176,-101 118.176,-104.5 118.176,-97.5001"/>
</g>
<!-- Node4 -->
<g id="node7" class="node"><title>Node4</title>
<polygon fill="none" stroke="black" points="249.77,-92.2 249.77,-109.8 294.23,-109.8 294.23,-92.2 249.77,-92.2"/>
<text text-anchor="middle" x="272" y="-97.8" font-family="Helvetica,sans-Serif" font-size="8.00">NPbase</text>
</g>
<!-- Node3&#45;&gt;Node4 -->
<g id="edge6" class="edge"><title>Node3&#45;&gt;Node4</title>
<path fill="none" stroke="midnightblue" d="M224.37,-101C233.171,-101 242.028,-101 249.623,-101"/>
<polygon fill="midnightblue" stroke="midnightblue" points="224.144,-97.5001 214.144,-101 224.144,-104.5 224.144,-97.5001"/>
</g>
<!-- Node5 -->
<g id="node9" class="node"><title>Node5</title>
<polygon fill="none" stroke="black" points="346.174,-185.2 346.174,-202.8 403.826,-202.8 403.826,-185.2 346.174,-185.2"/>
<text text-anchor="middle" x="375" y="-190.8" font-family="Helvetica,sans-Serif" font-size="8.00">NPEffective</text>
</g>
<!-- Node4&#45;&gt;Node5 -->
<g id="edge8" class="edge"><title>Node4&#45;&gt;Node5</title>
<path fill="none" stroke="midnightblue" d="M282.934,-118.579C292.984,-135.03 309.883,-159.354 330,-175 335.123,-178.985 341.209,-182.305 347.195,-184.996"/>
<polygon fill="midnightblue" stroke="midnightblue" points="285.928,-116.766 277.835,-109.928 279.897,-120.32 285.928,-116.766"/>
</g>
<!-- Node8 -->
<g id="node15" class="node"><title>Node8</title>
<polygon fill="none" stroke="black" points="346.324,-148.2 346.324,-165.8 403.676,-165.8 403.676,-148.2 346.324,-148.2"/>
<text text-anchor="middle" x="375" y="-153.8" font-family="Helvetica,sans-Serif" font-size="8.00">NPEpsilons</text>
</g>
<!-- Node4&#45;&gt;Node8 -->
<g id="edge14" class="edge"><title>Node4&#45;&gt;Node8</title>
<path fill="none" stroke="midnightblue" d="M293.838,-115.733C304.413,-122.895 317.612,-131.366 330,-138 336.748,-141.614 344.329,-145.084 351.272,-148.048"/>
<polygon fill="midnightblue" stroke="midnightblue" points="295.528,-112.647 285.308,-109.856 291.557,-118.412 295.528,-112.647"/>
</g>
<!-- Node9 -->
<g id="node17" class="node"><title>Node9</title>
<polygon fill="none" stroke="black" points="330.537,-111.2 330.537,-128.8 419.463,-128.8 419.463,-111.2 330.537,-111.2"/>
<text text-anchor="middle" x="375" y="-116.8" font-family="Helvetica,sans-Serif" font-size="8.00">NPEpsilons_pureNP</text>
</g>
<!-- Node4&#45;&gt;Node9 -->
<g id="edge16" class="edge"><title>Node4&#45;&gt;Node9</title>
<path fill="none" stroke="midnightblue" d="M304.286,-106.885C312.472,-108.425 321.45,-110.114 330.159,-111.753"/>
<polygon fill="midnightblue" stroke="midnightblue" points="304.894,-103.439 294.42,-105.029 303.6,-110.318 304.894,-103.439"/>
</g>
<!-- Node10 -->
<g id="node19" class="node"><title>Node10</title>
<polygon fill="none" stroke="black" points="351.217,-74.2 351.217,-91.8 398.783,-91.8 398.783,-74.2 351.217,-74.2"/>
<text text-anchor="middle" x="375" y="-79.8" font-family="Helvetica,sans-Serif" font-size="8.00">NPHiggs</text>
</g>
<!-- Node4&#45;&gt;Node10 -->
<g id="edge18" class="edge"><title>Node4&#45;&gt;Node10</title>
<path fill="none" stroke="midnightblue" d="M304.395,-95.4049C319.543,-92.7052 337.382,-89.526 351.208,-87.062"/>
<polygon fill="midnightblue" stroke="midnightblue" points="303.65,-91.9823 294.42,-97.1827 304.878,-98.8738 303.65,-91.9823"/>
</g>
<!-- Node11 -->
<g id="node21" class="node"><title>Node11</title>
<polygon fill="none" stroke="black" points="353.443,-37.2 353.443,-54.8 396.557,-54.8 396.557,-37.2 353.443,-37.2"/>
<text text-anchor="middle" x="375" y="-42.8" font-family="Helvetica,sans-Serif" font-size="8.00">NPSTU</text>
</g>
<!-- Node4&#45;&gt;Node11 -->
<g id="edge20" class="edge"><title>Node4&#45;&gt;Node11</title>
<path fill="none" stroke="midnightblue" d="M294.302,-86.4361C304.817,-79.5364 317.83,-71.4207 330,-65 337.359,-61.1173 345.683,-57.3688 353.095,-54.2421"/>
<polygon fill="midnightblue" stroke="midnightblue" points="292.166,-83.6535 285.788,-92.1134 296.049,-89.4774 292.166,-83.6535"/>
</g>
<!-- Node12 -->
<g id="node23" class="node"><title>Node12</title>
<polygon fill="none" stroke="black" points="348.77,-0.2 348.77,-17.8 401.23,-17.8 401.23,-0.2 348.77,-0.2"/>
<text text-anchor="middle" x="375" y="-5.8" font-family="Helvetica,sans-Serif" font-size="8.00">NPZbbbar</text>
</g>
<!-- Node4&#45;&gt;Node12 -->
<g id="edge22" class="edge"><title>Node4&#45;&gt;Node12</title>
<path fill="none" stroke="midnightblue" d="M283.272,-83.2076C293.393,-66.9927 310.189,-43.3039 330,-28 335.531,-23.7272 342.17,-20.2127 348.594,-17.419"/>
<polygon fill="midnightblue" stroke="midnightblue" points="280.02,-81.8228 277.865,-92.1961 286.019,-85.4309 280.02,-81.8228"/>
</g>
<!-- Node6 -->
<g id="node11" class="node"><title>Node6</title>
<polygon fill="none" stroke="black" points="455.949,-203.2 455.949,-220.8 518.051,-220.8 518.051,-203.2 455.949,-203.2"/>
<text text-anchor="middle" x="487" y="-208.8" font-family="Helvetica,sans-Serif" font-size="8.00">NPEffective1</text>
</g>
<!-- Node5&#45;&gt;Node6 -->
<g id="edge10" class="edge"><title>Node5&#45;&gt;Node6</title>
<path fill="none" stroke="midnightblue" d="M414.086,-200.232C427.693,-202.459 442.829,-204.936 455.692,-207.04"/>
<polygon fill="midnightblue" stroke="midnightblue" points="414.476,-196.75 404.042,-198.589 413.346,-203.658 414.476,-196.75"/>
</g>
<!-- Node7 -->
<g id="node13" class="node"><title>Node7</title>
<polygon fill="none" stroke="black" points="455.949,-166.2 455.949,-183.8 518.051,-183.8 518.051,-166.2 455.949,-166.2"/>
<text text-anchor="middle" x="487" y="-171.8" font-family="Helvetica,sans-Serif" font-size="8.00">NPEffective2</text>
</g>
<!-- Node5&#45;&gt;Node7 -->
<g id="edge12" class="edge"><title>Node5&#45;&gt;Node7</title>
<path fill="none" stroke="midnightblue" d="M414.086,-187.422C427.693,-185.071 442.829,-182.457 455.692,-180.235"/>
<polygon fill="midnightblue" stroke="midnightblue" points="413.301,-184.005 404.042,-189.156 414.492,-190.903 413.301,-184.005"/>
</g>
</g>
</svg>
