<?xml version="1.0" encoding="UTF-8" standalone="no"?>
<!DOCTYPE svg PUBLIC "-//W3C//DTD SVG 1.1//EN"
 "http://www.w3.org/Graphics/SVG/1.1/DTD/svg11.dtd">
<!-- Generated by graphviz version 2.38.0 (20140413.2041)
 -->
<!-- Title: Graphical Class Hierarchy Pages: 1 -->
<svg width="602pt" height="375pt"
 viewBox="0.00 0.00 602.36 375.00" xmlns="http://www.w3.org/2000/svg" xmlns:xlink="http://www.w3.org/1999/xlink">
<g id="graph0" class="graph" transform="scale(1 1) rotate(0) translate(4 371)">
<title>Graphical Class Hierarchy</title>
<!-- Node1 -->
<g id="node1" class="node"><title>Node1</title>
<g id="a_node1"><a xlink:href="d0/de3/class_model.html" target="_top" xlink:title="A class for the template of models. ">
<polygon fill="none" stroke="black" points="0,-192.5 0,-208.5 37.7891,-208.5 37.7891,-192.5 0,-192.5"/>
<text text-anchor="middle" x="18.8945" y="-198.1" font-family="Helvetica,sans-Serif" font-size="8.00">Model</text>
</a>
</g>
</g>
<!-- Node2 -->
<g id="node2" class="node"><title>Node2</title>
<g id="a_node2"><a xlink:href="dd/dfa/class_q_c_d.html" target="_top" xlink:title="A class for parameters related to QCD, hadrons and quarks. ">
<polygon fill="none" stroke="black" points="73.7891,-192.5 73.7891,-208.5 107.566,-208.5 107.566,-192.5 73.7891,-192.5"/>
<text text-anchor="middle" x="90.6777" y="-198.1" font-family="Helvetica,sans-Serif" font-size="8.00">QCD</text>
</a>
</g>
</g>
<!-- Node1&#45;&gt;Node2 -->
<g id="edge1" class="edge"><title>Node1&#45;&gt;Node2</title>
<path fill="none" stroke="midnightblue" d="M47.9802,-200.5C56.6322,-200.5 65.865,-200.5 73.4377,-200.5"/>
<polygon fill="midnightblue" stroke="midnightblue" points="47.8655,-197 37.8654,-200.5 47.8654,-204 47.8655,-197"/>
</g>
<!-- Node3 -->
<g id="node3" class="node"><title>Node3</title>
<g id="a_node3"><a xlink:href="dc/dd5/class_standard_model.html" target="_top" xlink:title="A model class for the Standard Model. ">
<polygon fill="none" stroke="black" points="143.566,-192.5 143.566,-208.5 213.824,-208.5 213.824,-192.5 143.566,-192.5"/>
<text text-anchor="middle" x="178.695" y="-198.1" font-family="Helvetica,sans-Serif" font-size="8.00">StandardModel</text>
</a>
</g>
</g>
<!-- Node2&#45;&gt;Node3 -->
<g id="edge2" class="edge"><title>Node2&#45;&gt;Node3</title>
<path fill="none" stroke="midnightblue" d="M118.075,-200.5C126.075,-200.5 134.981,-200.5 143.419,-200.5"/>
<polygon fill="midnightblue" stroke="midnightblue" points="117.857,-197 107.857,-200.5 117.857,-204 117.857,-197"/>
</g>
<!-- Node4 -->
<g id="node4" class="node"><title>Node4</title>
<g id="a_node4"><a xlink:href="d6/d75/class_flavour_wilson_coefficient.html" target="_top" xlink:title="Model for NP contributions to flavour. ">
<polygon fill="none" stroke="black" points="249.824,-210.5 249.824,-226.5 354.301,-226.5 354.301,-210.5 249.824,-210.5"/>
<text text-anchor="middle" x="302.062" y="-216.1" font-family="Helvetica,sans-Serif" font-size="8.00">FlavourWilsonCoefficient</text>
</a>
</g>
</g>
<!-- Node3&#45;&gt;Node4 -->
<g id="edge3" class="edge"><title>Node3&#45;&gt;Node4</title>
<path fill="none" stroke="midnightblue" d="M223.753,-207.034C232.117,-208.275 240.937,-209.583 249.508,-210.854"/>
<polygon fill="midnightblue" stroke="midnightblue" points="224.231,-203.567 213.826,-205.562 223.204,-210.491 224.231,-203.567"/>
</g>
<!-- Node5 -->
<g id="node5" class="node"><title>Node5</title>
<g id="a_node5"><a xlink:href="d2/df3/class_n_pbase.html" target="_top" xlink:title="The auxiliary base model class for other model classes. ">
<polygon fill="none" stroke="black" points="279.832,-175.5 279.832,-191.5 324.293,-191.5 324.293,-175.5 279.832,-175.5"/>
<text text-anchor="middle" x="302.062" y="-181.1" font-family="Helvetica,sans-Serif" font-size="8.00">NPbase</text>
</a>
</g>
</g>
<!-- Node3&#45;&gt;Node5 -->
<g id="edge4" class="edge"><title>Node3&#45;&gt;Node5</title>
<path fill="none" stroke="midnightblue" d="M223.829,-194.318C242.895,-191.648 264.321,-188.646 279.76,-186.484"/>
<polygon fill="midnightblue" stroke="midnightblue" points="223.244,-190.866 213.826,-195.719 224.215,-197.798 223.244,-190.866"/>
</g>
<!-- Node6 -->
<g id="node6" class="node"><title>Node6</title>
<g id="a_node6"><a xlink:href="d6/dfa/class_higgs_kvgen_kf.html" target="_top" xlink:title="A model class extending the StandardModel Higgs sector with three couplings. ">
<polygon fill="none" stroke="black" points="401.641,-350.5 401.641,-366.5 468.336,-366.5 468.336,-350.5 401.641,-350.5"/>
<text text-anchor="middle" x="434.988" y="-356.1" font-family="Helvetica,sans-Serif" font-size="8.00">HiggsKvgenKf</text>
</a>
</g>
</g>
<!-- Node5&#45;&gt;Node6 -->
<g id="edge5" class="edge"><title>Node5&#45;&gt;Node6</title>
<path fill="none" stroke="midnightblue" d="M334.085,-189.042C341.567,-191.707 348.938,-195.655 354.301,-201.5 397.732,-248.843 347.663,-293.441 390.301,-341.5 393.542,-345.153 397.663,-348.027 402.074,-350.287"/>
<polygon fill="midnightblue" stroke="midnightblue" points="334.926,-185.641 324.347,-186.224 332.98,-192.365 334.926,-185.641"/>
</g>
<!-- Node7 -->
<g id="node7" class="node"><title>Node7</title>
<g id="a_node7"><a xlink:href="d4/dc1/class_higgs_kv_kf.html" target="_top" xlink:title="A model class extending the StandardModel Higgs sector with two universal couplings. ">
<polygon fill="none" stroke="black" points="408.314,-315.5 408.314,-331.5 461.662,-331.5 461.662,-315.5 408.314,-315.5"/>
<text text-anchor="middle" x="434.988" y="-321.1" font-family="Helvetica,sans-Serif" font-size="8.00">HiggsKvKf</text>
</a>
</g>
</g>
<!-- Node5&#45;&gt;Node7 -->
<g id="edge6" class="edge"><title>Node5&#45;&gt;Node7</title>
<path fill="none" stroke="midnightblue" d="M333.966,-189.399C341.387,-192.06 348.759,-195.916 354.301,-201.5 389.053,-236.515 356.136,-270.912 390.301,-306.5 395.148,-311.549 401.669,-315.124 408.192,-317.646"/>
<polygon fill="midnightblue" stroke="midnightblue" points="334.915,-186.03 324.332,-186.543 332.925,-192.741 334.915,-186.03"/>
</g>
<!-- Node8 -->
<g id="node8" class="node"><title>Node8</title>
<g id="a_node8"><a xlink:href="d2/d27/class_higgs_kv_kfgen.html" target="_top" xlink:title="A model class extending the StandardModel Higgs sector with four flavour&#45;universal couplings...">
<polygon fill="none" stroke="black" points="401.641,-280.5 401.641,-296.5 468.336,-296.5 468.336,-280.5 401.641,-280.5"/>
<text text-anchor="middle" x="434.988" y="-286.1" font-family="Helvetica,sans-Serif" font-size="8.00">HiggsKvKfgen</text>
</a>
</g>
</g>
<!-- Node5&#45;&gt;Node8 -->
<g id="edge7" class="edge"><title>Node5&#45;&gt;Node8</title>
<path fill="none" stroke="midnightblue" d="M334.053,-190.188C341.277,-192.827 348.534,-196.475 354.301,-201.5 380.676,-224.484 364.312,-248.08 390.301,-271.5 394.412,-275.205 399.422,-278.141 404.562,-280.455"/>
<polygon fill="midnightblue" stroke="midnightblue" points="334.954,-186.803 324.366,-187.181 332.878,-193.488 334.954,-186.803"/>
</g>
<!-- Node9 -->
<g id="node9" class="node"><title>Node9</title>
<g id="a_node9"><a xlink:href="db/d75/class_n_p_effective_b_s.html" target="_top" xlink:title="A model class for new physics in the form the dimension&#45;six effective Lagrangian in the basis of Barb...">
<polygon fill="none" stroke="black" points="400.826,-245.5 400.826,-261.5 469.15,-261.5 469.15,-245.5 400.826,-245.5"/>
<text text-anchor="middle" x="434.988" y="-251.1" font-family="Helvetica,sans-Serif" font-size="8.00">NPEffectiveBS</text>
</a>
</g>
</g>
<!-- Node5&#45;&gt;Node9 -->
<g id="edge8" class="edge"><title>Node5&#45;&gt;Node9</title>
<path fill="none" stroke="midnightblue" d="M334.24,-192.027C341.109,-194.559 348.161,-197.697 354.301,-201.5 373.272,-213.251 371.528,-224.435 390.301,-236.5 395.778,-240.02 402.098,-243 408.2,-245.434"/>
<polygon fill="midnightblue" stroke="midnightblue" points="335.028,-188.6 324.434,-188.746 332.806,-195.239 335.028,-188.6"/>
</g>
<!-- Node10 -->
<g id="node10" class="node"><title>Node10</title>
<g id="a_node10"><a xlink:href="de/d04/class_n_p_effective_g_i_m_r.html" target="_top" xlink:title="A model class for new physics in the form of the dimension&#45;six effective Lagrangian, with lepton&#45;flavour universality and without quark&#45;flavour universality. ">
<polygon fill="none" stroke="black" points="395.719,-210.5 395.719,-226.5 474.258,-226.5 474.258,-210.5 395.719,-210.5"/>
<text text-anchor="middle" x="434.988" y="-216.1" font-family="Helvetica,sans-Serif" font-size="8.00">NPEffectiveGIMR</text>
</a>
</g>
</g>
<!-- Node5&#45;&gt;Node10 -->
<g id="edge9" class="edge"><title>Node5&#45;&gt;Node10</title>
<path fill="none" stroke="midnightblue" d="M334.151,-191.811C355.245,-197.45 382.985,-204.865 403.87,-210.449"/>
<polygon fill="midnightblue" stroke="midnightblue" points="334.954,-188.403 324.389,-189.201 333.146,-195.165 334.954,-188.403"/>
</g>
<!-- Node11 -->
<g id="node11" class="node"><title>Node11</title>
<g id="a_node11"><a xlink:href="d1/d57/class_n_p_epsilons.html" target="_top" xlink:title="A model class for new physics in the form of contributions to the &#160;parameters. ">
<polygon fill="none" stroke="black" points="406.312,-175.5 406.312,-191.5 463.664,-191.5 463.664,-175.5 406.312,-175.5"/>
<text text-anchor="middle" x="434.988" y="-181.1" font-family="Helvetica,sans-Serif" font-size="8.00">NPEpsilons</text>
</a>
</g>
</g>
<!-- Node5&#45;&gt;Node11 -->
<g id="edge10" class="edge"><title>Node5&#45;&gt;Node11</title>
<path fill="none" stroke="midnightblue" d="M334.499,-183.5C356.376,-183.5 385.273,-183.5 406.285,-183.5"/>
<polygon fill="midnightblue" stroke="midnightblue" points="334.389,-180 324.389,-183.5 334.389,-187 334.389,-180"/>
</g>
<!-- Node12 -->
<g id="node12" class="node"><title>Node12</title>
<g id="a_node12"><a xlink:href="d0/dc8/class_n_p_epsilons__pure_n_p.html" target="_top" xlink:title="A model class for new physics in the form of contributions to the &#160;parameters. ">
<polygon fill="none" stroke="black" points="390.525,-140.5 390.525,-156.5 479.451,-156.5 479.451,-140.5 390.525,-140.5"/>
<text text-anchor="middle" x="434.988" y="-146.1" font-family="Helvetica,sans-Serif" font-size="8.00">NPEpsilons_pureNP</text>
</a>
</g>
</g>
<!-- Node5&#45;&gt;Node12 -->
<g id="edge11" class="edge"><title>Node5&#45;&gt;Node12</title>
<path fill="none" stroke="midnightblue" d="M334.151,-175.189C355.245,-169.55 382.985,-162.135 403.87,-156.551"/>
<polygon fill="midnightblue" stroke="midnightblue" points="333.146,-171.835 324.389,-177.799 334.954,-178.597 333.146,-171.835"/>
</g>
<!-- Node13 -->
<g id="node13" class="node"><title>Node13</title>
<g id="a_node13"><a xlink:href="db/db3/class_n_p_higgs.html" target="_top" xlink:title="A model class for new physics in the form of an electroweak chiral Lagrangian with a light Higgs&#45;like...">
<polygon fill="none" stroke="black" points="411.205,-105.5 411.205,-121.5 458.771,-121.5 458.771,-105.5 411.205,-105.5"/>
<text text-anchor="middle" x="434.988" y="-111.1" font-family="Helvetica,sans-Serif" font-size="8.00">NPHiggs</text>
</a>
</g>
</g>
<!-- Node5&#45;&gt;Node13 -->
<g id="edge12" class="edge"><title>Node5&#45;&gt;Node13</title>
<path fill="none" stroke="midnightblue" d="M324.204,-169.705C341.573,-158.665 367.021,-143.155 390.301,-131.5 397.343,-127.974 405.247,-124.562 412.376,-121.673"/>
<polygon fill="midnightblue" stroke="midnightblue" points="321.974,-166.977 315.45,-175.326 325.756,-172.868 321.974,-166.977"/>
</g>
<!-- Node14 -->
<g id="node14" class="node"><title>Node14</title>
<g id="a_node14"><a xlink:href="d9/dad/class_n_p_s_t_u.html" target="_top" xlink:title="A model class for new physics in the form of contributions to the oblique parameters &#160;and ...">
<polygon fill="none" stroke="black" points="413.432,-70.5 413.432,-86.5 456.545,-86.5 456.545,-70.5 413.432,-70.5"/>
<text text-anchor="middle" x="434.988" y="-76.1" font-family="Helvetica,sans-Serif" font-size="8.00">NPSTU</text>
</a>
</g>
</g>
<!-- Node5&#45;&gt;Node14 -->
<g id="edge13" class="edge"><title>Node5&#45;&gt;Node14</title>
<path fill="none" stroke="midnightblue" d="M315.718,-167.487C331.472,-148.43 360.022,-116.661 390.301,-96.5 397.265,-91.8627 405.616,-88.0632 413.142,-85.1701"/>
<polygon fill="midnightblue" stroke="midnightblue" points="312.812,-165.514 309.239,-175.488 318.252,-169.919 312.812,-165.514"/>
</g>
<!-- Node16 -->
<g id="node16" class="node"><title>Node16</title>
<g id="a_node16"><a xlink:href="dc/def/class_n_p_zbbbar.html" target="_top" xlink:title="A model class for new physics in the form of contributions to the &#160;couplings. ">
<polygon fill="none" stroke="black" points="408.758,-35.5 408.758,-51.5 461.219,-51.5 461.219,-35.5 408.758,-35.5"/>
<text text-anchor="middle" x="434.988" y="-41.1" font-family="Helvetica,sans-Serif" font-size="8.00">NPZbbbar</text>
</a>
</g>
</g>
<!-- Node5&#45;&gt;Node16 -->
<g id="edge15" class="edge"><title>Node5&#45;&gt;Node16</title>
<path fill="none" stroke="midnightblue" d="M311.246,-166.509C324.509,-140.587 353.017,-91.0645 390.301,-61.5 395.7,-57.2187 402.26,-53.809 408.637,-51.1599"/>
<polygon fill="midnightblue" stroke="midnightblue" points="308.103,-164.97 306.785,-175.483 314.371,-168.086 308.103,-164.97"/>
</g>
<!-- Node17 -->
<g id="node17" class="node"><title>Node17</title>
<g id="a_node17"><a xlink:href="d4/d22/class_n_p_zbbbar_linearized.html" target="_top" xlink:title="A model class for new physics in the form of contributions to the &#160;couplings. ">
<polygon fill="none" stroke="black" points="390.301,-0.5 390.301,-16.5 479.676,-16.5 479.676,-0.5 390.301,-0.5"/>
<text text-anchor="middle" x="434.988" y="-6.1" font-family="Helvetica,sans-Serif" font-size="8.00">NPZbbbarLinearized</text>
</a>
</g>
</g>
<!-- Node5&#45;&gt;Node17 -->
<g id="edge16" class="edge"><title>Node5&#45;&gt;Node17</title>
<path fill="none" stroke="midnightblue" d="M308.552,-165.699C319.276,-133.671 345.918,-65.9976 390.301,-26.5 394.958,-22.3554 400.7,-19.0852 406.473,-16.5355"/>
<polygon fill="midnightblue" stroke="midnightblue" points="305.15,-164.845 305.42,-175.437 311.814,-166.989 305.15,-164.845"/>
</g>
<!-- Node15 -->
<g id="node15" class="node"><title>Node15</title>
<g id="a_node15"><a xlink:href="d4/dac/class_n_p_s_t_u_zbbbar_l_r.html" target="_top" xlink:title="A model class for new physics in the form of oblique and &#45;vertex corrections. ">
<polygon fill="none" stroke="black" points="515.676,-70.5 515.676,-86.5 594.363,-86.5 594.363,-70.5 515.676,-70.5"/>
<text text-anchor="middle" x="555.02" y="-76.1" font-family="Helvetica,sans-Serif" font-size="8.00">NPSTUZbbbarLR</text>
</a>
</g>
</g>
<!-- Node14&#45;&gt;Node15 -->
<g id="edge14" class="edge"><title>Node14&#45;&gt;Node15</title>
<path fill="none" stroke="midnightblue" d="M466.779,-78.5C481.7,-78.5 499.77,-78.5 515.586,-78.5"/>
<polygon fill="midnightblue" stroke="midnightblue" points="466.548,-75.0001 456.548,-78.5 466.548,-82.0001 466.548,-75.0001"/>
</g>
</g>
</svg>
